<mxfile host="app.diagrams.net" modified="2023-07-25T02:37:06.873Z" agent="Mozilla/5.0 (X11; Linux x86_64; rv:109.0) Gecko/20100101 Firefox/115.0" version="21.6.5" etag="FKwYPl1rkeG1KQwZHQ-4" type="github">
  <diagram name="PÃ¡gina-1" id="pmyULtReEv3splSKrlRf">
    <mxGraphModel>
      <root>
        <mxCell id="0" />
        <mxCell id="1" parent="0" />
      </root>
    </mxGraphModel>
  </diagram>
</mxfile>
